# xmcd
#
# Track frame offsets:
#	150
#	15795
#	31206
#	59121
#
# Disc length: 1565 seconds
#
# Revision: 2
# Processed by: cddbd v1.4PL0 Copyright (c) Steve Scherf et al.
# Submitted via: audiograbber 1.82.01
#
DISCID=27061b04
DTITLE=Blue - One Love (Maxi-CD)
DYEAR=2002
DGENRE=Pop
TTITLE0=One Love
TTITLE1=Get Ready
TTITLE2=One Love (Octave Remix)
TTITLE3=Video Interactive Element
EXTD=
EXTT0=
EXTT1=
EXTT2=
EXTT3=
PLAYORDER=
